<?xml version="1.0" standalone="no"?>
<!DOCTYPE svg PUBLIC "-//W3C//DTD SVG 20010904//EN"
 "http://www.w3.org/TR/2001/REC-SVG-20010904/DTD/svg10.dtd">
<svg version="1.0" xmlns="http://www.w3.org/2000/svg"
 width="209.000000pt" height="203.000000pt" viewBox="0 0 209.000000 203.000000"
 preserveAspectRatio="xMidYMid meet">

<!-- <rect x="40" y="30" width="130" height="143" fill="#fff"/>
<polygon points="25,42 103,4 182,42 202,125 148,194 58,194 5,124" /> -->
<g color="#fff" x="15" y="15" fill="#fff" stroke="#fff" stroke-width="8" transform="translate(9,7) scale(2.180000,2.200000)">
<path xmlns="http://www.w3.org/2000/svg" d="m 79.797436,18.8 c -0.5,-1.6 -1.7,-2.9 -3.2,-3.7 l -30.5,-14.6 c -0.8,-0.4 -1.7,-0.5 -2.5,-0.5 -0.8,0 -1.7,0 -2.5,0.2 l -30.5,14.7 c -1.5000002,0.7 -2.6000002,2 -3.0000002,3.7 L 0.09743584,51.5 c -0.3,1.7 0.1,3.4 1.09999996,4.8 L 22.297436,82.4 c 1.2,1.2 2.9,2 4.6,2.1 h 33.6 c 1.8,0.2 3.5,-0.6 4.6,-2.1 l 21.1,-26.1 c 1,-1.4 1.4,-3.1 1.2,-4.8 l -7.6,-32.7 z" 
      id="path10349" />
</g>
<g color="#fff" fill="#326CE5"  transform="translate(0.000000,203.000000) scale(0.100000,-0.100000)">
<path d="M895 1909 c-55 -27 -208 -101 -340 -164 -132 -63 -253 -125 -268
-137 -31 -26 -26 -6 -127 -448 -33 -146 -65 -284 -71 -307 -6 -23 -9 -57 -5
-75 7 -39 464 -619 517 -655 32 -23 33 -23 438 -23 369 0 408 2 433 18 32 20
493 592 515 638 17 34 19 19 -42 279 -8 33 -35 150 -60 260 -69 303 -68 300
-118 329 -23 14 -189 95 -369 180 -251 120 -335 156 -365 155 -24 0 -73 -18
-138 -50z m276 -212 c91 -38 169 -161 169 -266 0 -107 -70 -221 -160 -262
l-50 -23 0 -268 0 -268 -85 0 -85 0 0 55 0 55 -65 0 -65 0 0 75 0 75 65 0 65
0 0 140 0 140 -34 14 c-47 20 -113 82 -139 130 -17 33 -21 59 -22 136 0 86 3
99 27 142 36 60 100 115 158 133 54 18 170 14 221 -8z m-465 -385 c16 -42 15
-44 -4 -65 -44 -48 -92 -152 -103 -229 -57 -367 333 -642 656 -463 215 120
295 391 179 604 -20 37 -42 72 -49 80 -12 12 -11 19 2 45 9 16 18 58 21 93 3
43 9 63 18 63 23 0 114 -102 157 -174 65 -113 80 -171 81 -316 1 -199 -47
-315 -183 -450 -156 -153 -363 -212 -586 -165 -175 37 -339 168 -420 337 -120
250 -72 532 123 725 l77 76 7 -59 c4 -32 15 -78 24 -102z"/>
<path d="M993 1545 c-63 -27 -91 -112 -58 -175 46 -89 173 -93 225 -7 39 64
14 149 -54 181 -41 19 -71 20 -113 1z"/>
</g>
</svg>
